<svg xmlns="http://www.w3.org/2000/svg" viewBox="0 0 479.999 479.999"><path d="M475.184 37.654a8 8 0 000-11.312l-24-24a8 8 0 00-11.312 0l-72 72a8 8 0 00-2.344 5.656v40h-152a8 8 0 00-8 8.552l6.672 95.448h-6.112a48.058 48.058 0 00-34.736 15.2 29.68 29.68 0 01-13.824 8.056v-15.896c27.517-3.992 47.947-27.555 48-55.36v-16a8 8 0 00-8-8 55.888 55.888 0 00-43.472 20.8c-8.069-22.061-29.038-36.751-52.528-36.8a8 8 0 00-8 8v16c.053 27.805 20.483 51.367 48 55.36v31.744a30.236 30.236 0 01-13.28-7.704l-1.976-1.96a48.297 48.297 0 00-35.528-14.24l-8.16.176a80.553 80.553 0 00-55.392 23.672C3.484 270.744-3.94 306.232 8.28 337.446l41.128 105.112c8.757 22.648 30.582 37.542 54.864 37.44a39.764 39.764 0 0028.288-11.712c9.493-9.072 24.443-9.072 33.936 0a39.725 39.725 0 0028.28 11.712 58.675 58.675 0 0034.504-11.2l.248 3.76a8.001 8.001 0 008 7.44h192a8 8 0 008-7.44l24-344a8 8 0 00-8-8.56h-40V99.31l61.656-61.656zM157.528 207.998c.021-19.002 13.387-35.375 32-39.2v7.2c-.021 19.002-13.387 35.375-32 39.2v-7.2zm-48-48v-7.2c18.613 3.825 31.979 20.198 32 39.2v7.2c-18.613-3.824-31.979-20.198-32-39.2zm125.2 276.728a42.624 42.624 0 01-39.952 27.272 24.174 24.174 0 01-16.968-7.024c-15.62-15.615-40.94-15.615-56.56 0a23.873 23.873 0 01-16.976 7.024 42.624 42.624 0 01-39.952-27.272L23.184 331.598c-9.902-25.296-3.888-54.055 15.32-73.264a64.558 64.558 0 0144.44-18.984l8.184-.152a33.599 33.599 0 0123.864 9.6l1.976 1.968a45.446 45.446 0 0033.312 13.656 46.018 46.018 0 0033.192-14.72 31.526 31.526 0 0122.616-9.704h10.192a62.172 62.172 0 0144.264 18.336c19.207 19.209 25.224 47.966 15.328 73.264l-41.144 105.128zm130.8 27.272H244.992l-.776-11.088a59.701 59.701 0 005.424-10.352l41.136-105.128c12.211-31.216 4.785-66.701-18.92-90.4a77.885 77.885 0 00-43.544-22.016l-.624-9.016h137.84v248zm0-264h-138.96l-4.464-64h143.424v64zm32 264h-16v-248h16v248zm0-264h-16v-64h16v64zm24.536 264h-8.536v-248h25.84l-17.304 248zm22.888-328l-4.464 64h-26.96v-64h31.424zm-45.08-45.656a8 8 0 00-2.344 5.656v24h-16V83.31l64-64 12.688 12.688-58.344 58.344z" /></svg>