<svg height="512" viewBox="0 0 512.002 512.002" width="512" xmlns="http://www.w3.org/2000/svg"><path d="M413.331 252.805h-.057c-5.522 0-10-4.477-10-10s4.478-10 10-10 10.028 4.477 10.028 10-4.448 10-9.971 10zM396.615 209.23a9.937 9.937 0 01-7.051-2.922l-.028-.028c-3.905-3.905-3.905-10.237 0-14.143 3.906-3.905 10.236-3.905 14.143 0 3.905 3.905 3.919 10.251.014 14.157a9.982 9.982 0 01-7.078 2.936z"/><path d="M479.715 271.384h-6.146a133.866 133.866 0 001.124-17.212c0-50.856-28.722-95.124-70.793-117.453l3.553-1.147c28.783-9.282 55.97-18.049 73.11-27.926 26.264-15.112 35.341-48.768 20.234-75.024-7.296-12.679-19.136-21.768-33.34-25.592-14.197-3.822-29.002-1.91-41.677 5.382-17.245 9.908-38.6 29.118-61.207 49.456l-.225.202C340.787 24.803 299.219 0 251.962 0 179.25 0 120.001 58.712 119.107 131.218c-48.362 19.887-82.505 67.504-82.505 122.954 0 5.761.384 11.515 1.124 17.212H32.26c-17.783 0-32.251 14.468-32.251 32.251 0 17.758 14.457 32.239 32.244 32.28l9.464.007 48.708 168.85a10 10 0 009.608 7.229h111.056c5.522 0 10-4.477 10-10s-4.478-10-10-10H107.556L80.555 398.4c.728.027 1.456.048 2.187.048 31.521 0 57.166-25.645 57.166-57.167 0-1.77-.09-3.532-.251-5.286l117.3.085v58.037c0 17.987 14.633 32.62 32.62 32.62 17.986 0 32.619-14.633 32.619-32.62v-59.64c0-6.959 5.661-12.62 12.619-12.62 6.959 0 12.62 5.661 12.62 12.62v18c0 17.987 14.633 32.62 32.619 32.62s32.619-14.633 32.619-32.62v-16.56h36.771l-31.673 109.796c-10.667-9.858-24.771-15.533-39.957-15.533-32.537 0-59.009 26.472-59.009 59.01 0 .938.03 1.875.074 2.813h-17.994c-5.522 0-10 4.477-10 10s4.478 10 10 10h29.526l.059.002.038-.002h81.433a10 10 0 009.608-7.229l48.71-168.856h9.455c17.799 0 32.279-14.48 32.279-32.28.001-17.786-14.479-32.254-32.278-32.254zM404.418 492h-65.505a39.466 39.466 0 01-.107-2.813c0-21.51 17.499-39.01 39.009-39.01 13.79 0 26.224 7.088 33.273 18.702zM377.95 76.737c21.798-19.609 42.387-38.131 57.8-46.986 8.052-4.632 17.467-5.842 26.509-3.408 9.043 2.435 16.573 8.207 21.203 16.254 9.607 16.697 3.833 38.102-12.879 47.717-15.313 8.824-41.521 17.276-69.269 26.224a3349.046 3349.046 0 00-16.922 5.495 131.86 131.86 0 00-10.411-41.732c1.324-1.189 2.652-2.379 3.969-3.564zM251.962 20c58.988 0 107.544 45.486 112.458 103.224a133.161 133.161 0 00-22.605-1.932c-32.83 0-62.912 11.975-86.123 31.777-24.045-20.556-54.312-31.777-86.215-31.777-10.347 0-20.422 1.19-30.095 3.439C143.573 66.279 192.462 20 251.962 20zm-82.484 121.292c26.533 0 51.733 9.144 71.949 25.917-20.229 23.323-32.487 53.738-32.487 86.963 0 5.761.384 11.515 1.124 17.212H57.922c-.87-5.68-1.32-11.441-1.32-17.212 0-62.242 50.636-112.88 112.876-112.88zM82.741 378.446a37.16 37.16 0 01-8.205-.912l-12-41.597 56.988.041c.25 1.752.383 3.521.383 5.3 0 20.495-16.672 37.168-37.166 37.168zm174.215-62.368l-224.674-.163c-6.769-.016-12.274-5.524-12.274-12.28s5.496-12.251 12.251-12.251H49.58l.046.002.035-.002H247.57c5.177 0 9.388 4.212 9.388 9.389v15.305zm135.717-15.306v51.703c0 6.959-5.661 12.62-12.619 12.62s-12.619-5.661-12.619-12.62v-18c0-17.987-14.634-32.62-32.62-32.62s-32.619 14.633-32.619 32.62v59.64c0 6.959-5.661 12.62-12.619 12.62-6.959 0-12.62-5.661-12.62-12.62v-93.343c0-16.205-13.184-29.389-29.388-29.389H230.26a113.743 113.743 0 01-1.321-17.212c0-62.242 50.636-112.88 112.876-112.88s112.877 50.638 112.877 112.88c0 5.772-.45 11.532-1.321 17.212H422.06c-16.203.001-29.387 13.184-29.387 29.389zm87.042 15.143h-67.041v-15.143c0-5.177 4.211-9.389 9.388-9.389h39.572l.035.002.045-.002h18.001c6.771 0 12.279 5.496 12.279 12.251 0 6.772-5.508 12.281-12.279 12.281z"/><path d="M145.107 422.32c0 23.989 19.528 43.505 43.532 43.505 23.988 0 43.504-19.516 43.504-43.505 0-24.004-19.516-43.533-43.504-43.533-24.004 0-43.532 19.528-43.532 43.533zm67.036 0c0 12.96-10.544 23.505-23.504 23.505-12.976 0-23.532-10.544-23.532-23.505 0-12.976 10.557-23.533 23.532-23.533 12.96 0 23.504 10.557 23.504 23.533zM92.861 250.736h.057c5.522 0 9.972-4.477 9.972-10s-4.506-10-10.028-10-10 4.477-10 10 4.476 10 9.999 10zM131.098 212.554h.057c5.522 0 9.972-4.477 9.972-10s-4.506-10-10.028-10-10 4.477-10 10 4.476 10 9.999 10zM126.37 241.87c0 5.523 4.478 10 10 10h.057c5.522 0 9.972-4.477 9.972-10s-4.506-10-10.028-10-10.001 4.477-10.001 10zM229.031 88.966h.057c5.522 0 9.972-4.477 9.972-10s-4.506-10-10.028-10-10 4.477-10 10 4.476 10 9.999 10zM286.061 94.947h.058c5.522 0 9.972-4.477 9.972-10s-4.507-10-10.029-10-10 4.477-10 10 4.476 10 9.999 10zM261.316 65.325h.057c5.522 0 9.972-4.477 9.972-10s-4.506-10-10.028-10-10 4.477-10 10 4.476 10 9.999 10zM344.679 201.369c-5.522 0-10 4.477-10 10v20.239c0 5.833-4.745 10.579-10.578 10.579-5.817 0-10.551-4.746-10.551-10.579v-20.239c0-5.523-4.478-10-10-10s-10 4.477-10 10v20.239c0 16.861 13.705 30.579 30.551 30.579 16.861 0 30.578-13.718 30.578-30.579v-20.239c0-5.523-4.478-10-10-10zM255.987 492c-5.522 0-10 4.477-10 10s4.478 10 10 10h.058c5.522 0 9.972-4.477 9.972-10s-4.508-10-10.03-10z"/></svg>