<svg xmlns="http://www.w3.org/2000/svg" viewBox="0 0 512 512"><g data-name="Milk Tank"><path d="M323.887 236.112c-37.963-37.974-99.006-36.767-135.774 0a95.829 95.829 0 00-20.978 104.265c3.861 9.443 18.7 3.446 14.81-6.056a79.913 79.913 0 0120.11-89.393 94.638 94.638 0 0012.328 21.583l-15.733 22.664c-16.4 23.027 20.759 54.97 39.684 27.007 15.663-22.563 10.962-15.75 11.869-17.1a5.564 5.564 0 0110 2.274l5.269 29.179c4.413 29.232 53.292 21.738 47.251-8.444l-4-22.164a96.076 96.076 0 0025.887-10.587 79.953 79.953 0 01-36.892 82.939c-9.335 5.692-.366 18.966 8.332 13.66 53.489-32.627 61.207-106.439 17.837-149.827zm-30.93 52.795a8 8 0 00-1.386 6.1c4.446 29.242 7.953 32.7 3.466 36.52-4.024 3.424-12.586 3.453-13.808-3.753l-5.269-29.183c-3.255-19.107-28.5-23.979-38.992-8.5-10.566 14.063-12.738 21.475-18.207 21-5.065-.432-10.578-7.694-7.009-12.738l19.221-27.687a8 8 0 00-.581-9.863 78.8 78.8 0 01-14.962-25.769c41.761-24.55 95.972-6.523 114.478 38.364-21.508 14.385-32.443 9.263-36.951 15.509z"/><path d="M201.3 339.627c-2.59 3.967-25.3 39.29-25.3 57.706 0 46.146 64 46.3 64 0 0-18.416-22.711-53.739-25.3-57.706a8 8 0 00-13.4 0zm-9.3 57.706c0-7.925 8.215-24.625 16-38.041 7.786 13.409 16 30.1 16 38.041 0 25.027-32 25.032-32 0z"/><path d="M414.887 130.142c-16.726-6.933-27.548 4.274-50.693 12.357L336 86.111V48c5.51-.489 10.7 1.534 14.306-3.077a8 8 0 001.455-6.863A50.173 50.173 0 00303.016 0h-94.031a50.173 50.173 0 00-48.746 38.06A8 8 0 00168 48h8v38.111L147.806 142.5c-23.1-8.068-33.968-19.29-50.693-12.357-24.193 10.024-22.088 44.891 3.1 52l27.785 7.9V448a8 8 0 00-8 8v48a8 8 0 008 8H384a8 8 0 008-8v-48a8 8 0 00-8-8V190.042c19.792-7.269 36.96-5.57 45.2-22.391a27.5 27.5 0 00-14.313-37.509zM208.985 16h94.031a34.194 34.194 0 0128.992 16H179.992a34.2 34.2 0 0128.993-16zm-104.41 150.744a11.527 11.527 0 01-1.338-21.821c7.8-3.23 12.06 2.217 37.4 11.915l-8.827 17.653zM376 496H136v-32h152a8 8 0 000-16H144V192h24a8 8 0 000-16h-19.056l40-80H200a8 8 0 000-16h-8V48h128v32h-56a8 8 0 000 16h59.056l40 80H232a8 8 0 000 16h136v256h-16a8 8 0 000 16h24zm31.408-329.251l-27.218 7.742-8.827-17.653c26.016-9.957 29.643-15.128 37.4-11.915a11.527 11.527 0 01-1.355 21.826z"/><circle cx="232" cy="88" r="8"/><circle cx="200" cy="184" r="8"/><circle cx="320" cy="456" r="8"/><circle cx="264" cy="392" r="8"/></g></svg>